<mxfile host="app.diagrams.net" modified="2023-11-11T15:34:11.887Z" agent="Mozilla/5.0 (Windows NT 10.0; Win64; x64) AppleWebKit/537.36 (KHTML, like Gecko) Chrome/119.0.0.0 Safari/537.36" etag="iTrOP1lKZcKTBqZK8cBo" version="22.1.0" type="github">
  <diagram name="Page-1" id="wQ4_0gjlYaH9XEFOojCG">
    <mxGraphModel dx="651" dy="704" grid="1" gridSize="10" guides="1" tooltips="1" connect="1" arrows="1" fold="1" page="1" pageScale="1" pageWidth="850" pageHeight="1100" math="0" shadow="0">
      <root>
        <mxCell id="0" />
        <mxCell id="1" parent="0" />
        <mxCell id="UnlSmL4kvAHs_l4UPPk3-31" style="edgeStyle=orthogonalEdgeStyle;rounded=0;orthogonalLoop=1;jettySize=auto;html=1;exitX=0;exitY=0;exitDx=0;exitDy=0;entryX=0.75;entryY=1;entryDx=0;entryDy=0;fontFamily=Helvetica;fontSize=11;fontColor=default;" edge="1" parent="1" source="UnlSmL4kvAHs_l4UPPk3-1" target="UnlSmL4kvAHs_l4UPPk3-28">
          <mxGeometry relative="1" as="geometry" />
        </mxCell>
        <mxCell id="UnlSmL4kvAHs_l4UPPk3-35" style="edgeStyle=orthogonalEdgeStyle;rounded=0;orthogonalLoop=1;jettySize=auto;html=1;exitX=0;exitY=0.5;exitDx=0;exitDy=0;entryX=1;entryY=1;entryDx=0;entryDy=0;fontFamily=Helvetica;fontSize=11;fontColor=default;" edge="1" parent="1" source="UnlSmL4kvAHs_l4UPPk3-1" target="UnlSmL4kvAHs_l4UPPk3-2">
          <mxGeometry relative="1" as="geometry">
            <Array as="points">
              <mxPoint x="510" y="435" />
              <mxPoint x="510" y="443" />
            </Array>
          </mxGeometry>
        </mxCell>
        <mxCell id="UnlSmL4kvAHs_l4UPPk3-36" value="Danh sách các nguyên liệu cần mua" style="edgeLabel;html=1;align=center;verticalAlign=middle;resizable=0;points=[];fontSize=11;fontFamily=Helvetica;fontColor=default;" vertex="1" connectable="0" parent="UnlSmL4kvAHs_l4UPPk3-35">
          <mxGeometry x="0.2843" relative="1" as="geometry">
            <mxPoint x="15" y="-3" as="offset" />
          </mxGeometry>
        </mxCell>
        <mxCell id="UnlSmL4kvAHs_l4UPPk3-1" value="Quản lý nhà bếp" style="shape=ellipse;html=1;dashed=0;whiteSpace=wrap;perimeter=ellipsePerimeter;" vertex="1" parent="1">
          <mxGeometry x="610" y="410" width="100" height="50" as="geometry" />
        </mxCell>
        <mxCell id="UnlSmL4kvAHs_l4UPPk3-10" style="rounded=0;orthogonalLoop=1;jettySize=auto;html=1;exitX=1;exitY=0;exitDx=0;exitDy=0;entryX=0;entryY=0.75;entryDx=0;entryDy=0;edgeStyle=orthogonalEdgeStyle;" edge="1" parent="1" source="UnlSmL4kvAHs_l4UPPk3-2" target="UnlSmL4kvAHs_l4UPPk3-7">
          <mxGeometry relative="1" as="geometry">
            <Array as="points">
              <mxPoint x="290" y="408" />
              <mxPoint x="290" y="268" />
            </Array>
          </mxGeometry>
        </mxCell>
        <mxCell id="UnlSmL4kvAHs_l4UPPk3-11" value="Phiếu &lt;br&gt;yêu &lt;br&gt;cầu &lt;br&gt;báo &lt;br&gt;giá" style="edgeLabel;html=1;align=center;verticalAlign=middle;resizable=0;points=[];" vertex="1" connectable="0" parent="UnlSmL4kvAHs_l4UPPk3-10">
          <mxGeometry x="0.0967" y="-1" relative="1" as="geometry">
            <mxPoint as="offset" />
          </mxGeometry>
        </mxCell>
        <mxCell id="UnlSmL4kvAHs_l4UPPk3-13" style="edgeStyle=orthogonalEdgeStyle;rounded=0;orthogonalLoop=1;jettySize=auto;html=1;exitX=0.5;exitY=0;exitDx=0;exitDy=0;entryX=0;entryY=0.5;entryDx=0;entryDy=0;fontFamily=Helvetica;fontSize=11;fontColor=default;" edge="1" parent="1" source="UnlSmL4kvAHs_l4UPPk3-2" target="UnlSmL4kvAHs_l4UPPk3-7">
          <mxGeometry relative="1" as="geometry" />
        </mxCell>
        <mxCell id="UnlSmL4kvAHs_l4UPPk3-14" value="Đơn mua hàng" style="edgeLabel;html=1;align=center;verticalAlign=middle;resizable=0;points=[];fontSize=11;fontFamily=Helvetica;fontColor=default;" vertex="1" connectable="0" parent="UnlSmL4kvAHs_l4UPPk3-13">
          <mxGeometry x="0.3267" y="1" relative="1" as="geometry">
            <mxPoint x="16" y="1" as="offset" />
          </mxGeometry>
        </mxCell>
        <mxCell id="UnlSmL4kvAHs_l4UPPk3-2" value="Quản lý chung" style="shape=ellipse;html=1;dashed=0;whiteSpace=wrap;perimeter=ellipsePerimeter;" vertex="1" parent="1">
          <mxGeometry x="170" y="400" width="100" height="50" as="geometry" />
        </mxCell>
        <mxCell id="UnlSmL4kvAHs_l4UPPk3-8" style="edgeStyle=orthogonalEdgeStyle;rounded=0;orthogonalLoop=1;jettySize=auto;html=1;exitX=0;exitY=0;exitDx=0;exitDy=0;entryX=0.5;entryY=1;entryDx=0;entryDy=0;" edge="1" parent="1" source="UnlSmL4kvAHs_l4UPPk3-3" target="UnlSmL4kvAHs_l4UPPk3-5">
          <mxGeometry relative="1" as="geometry" />
        </mxCell>
        <mxCell id="UnlSmL4kvAHs_l4UPPk3-3" value="Quản lý khách hàng" style="shape=ellipse;html=1;dashed=0;whiteSpace=wrap;perimeter=ellipsePerimeter;points=[[0,0.5,0,0,0],[0.17,0.12,0,0,0],[0.17,0.88,0,0,0],[0.33,0,0,0,0],[0.33,1,0,0,0],[0.5,0,0,0,0],[0.5,1,0,0,0],[0.65,0,0,0,0],[0.65,1,0,0,0],[0.81,0.12,0,0,0],[0.81,0.88,0,0,0],[1,0.5,0,0,0]];" vertex="1" parent="1">
          <mxGeometry x="170" y="750" width="100" height="50" as="geometry" />
        </mxCell>
        <mxCell id="UnlSmL4kvAHs_l4UPPk3-26" style="edgeStyle=orthogonalEdgeStyle;rounded=0;orthogonalLoop=1;jettySize=auto;html=1;exitX=1;exitY=1;exitDx=0;exitDy=0;entryX=0.5;entryY=0;entryDx=0;entryDy=0;fontFamily=Helvetica;fontSize=11;fontColor=default;" edge="1" parent="1" source="UnlSmL4kvAHs_l4UPPk3-4" target="UnlSmL4kvAHs_l4UPPk3-7">
          <mxGeometry relative="1" as="geometry">
            <Array as="points">
              <mxPoint x="780" y="792" />
              <mxPoint x="780" y="50" />
              <mxPoint x="375" y="50" />
            </Array>
          </mxGeometry>
        </mxCell>
        <mxCell id="UnlSmL4kvAHs_l4UPPk3-27" value="Phiếu thanh toán hóa đơn mua hàng" style="edgeLabel;html=1;align=center;verticalAlign=middle;resizable=0;points=[];fontSize=11;fontFamily=Helvetica;fontColor=default;" vertex="1" connectable="0" parent="UnlSmL4kvAHs_l4UPPk3-26">
          <mxGeometry x="0.5023" y="-1" relative="1" as="geometry">
            <mxPoint as="offset" />
          </mxGeometry>
        </mxCell>
        <mxCell id="UnlSmL4kvAHs_l4UPPk3-4" value="Quản lý thu ngân" style="shape=ellipse;html=1;dashed=0;whiteSpace=wrap;perimeter=ellipsePerimeter;" vertex="1" parent="1">
          <mxGeometry x="610" y="750" width="100" height="50" as="geometry" />
        </mxCell>
        <mxCell id="UnlSmL4kvAHs_l4UPPk3-9" style="rounded=0;orthogonalLoop=1;jettySize=auto;html=1;exitX=0.5;exitY=0;exitDx=0;exitDy=0;entryX=0;entryY=1;entryDx=0;entryDy=0;" edge="1" parent="1" source="UnlSmL4kvAHs_l4UPPk3-5" target="UnlSmL4kvAHs_l4UPPk3-2">
          <mxGeometry relative="1" as="geometry" />
        </mxCell>
        <mxCell id="UnlSmL4kvAHs_l4UPPk3-5" value="Đơn đặt bàn" style="html=1;dashed=0;whiteSpace=wrap;shape=partialRectangle;right=0;left=0;" vertex="1" parent="1">
          <mxGeometry x="40" y="560" width="120" height="30" as="geometry" />
        </mxCell>
        <mxCell id="UnlSmL4kvAHs_l4UPPk3-6" value="Khách hàng" style="html=1;dashed=0;whiteSpace=wrap;" vertex="1" parent="1">
          <mxGeometry x="370" y="870" width="100" height="50" as="geometry" />
        </mxCell>
        <mxCell id="UnlSmL4kvAHs_l4UPPk3-15" style="edgeStyle=orthogonalEdgeStyle;rounded=0;orthogonalLoop=1;jettySize=auto;html=1;exitX=0;exitY=0.25;exitDx=0;exitDy=0;entryX=0;entryY=0;entryDx=0;entryDy=0;fontFamily=Helvetica;fontSize=11;fontColor=default;" edge="1" parent="1" source="UnlSmL4kvAHs_l4UPPk3-7" target="UnlSmL4kvAHs_l4UPPk3-2">
          <mxGeometry relative="1" as="geometry" />
        </mxCell>
        <mxCell id="UnlSmL4kvAHs_l4UPPk3-17" value="Phiếu&lt;br&gt;báo&lt;br&gt;giá" style="edgeLabel;html=1;align=center;verticalAlign=middle;resizable=0;points=[];fontSize=11;fontFamily=Helvetica;fontColor=default;" vertex="1" connectable="0" parent="UnlSmL4kvAHs_l4UPPk3-15">
          <mxGeometry x="0.3071" y="-2" relative="1" as="geometry">
            <mxPoint y="25" as="offset" />
          </mxGeometry>
        </mxCell>
        <mxCell id="UnlSmL4kvAHs_l4UPPk3-18" style="edgeStyle=orthogonalEdgeStyle;rounded=0;orthogonalLoop=1;jettySize=auto;html=1;exitX=1;exitY=0;exitDx=0;exitDy=0;entryX=0.5;entryY=0;entryDx=0;entryDy=0;fontFamily=Helvetica;fontSize=11;fontColor=default;" edge="1" parent="1" source="UnlSmL4kvAHs_l4UPPk3-7" target="UnlSmL4kvAHs_l4UPPk3-1">
          <mxGeometry relative="1" as="geometry">
            <Array as="points">
              <mxPoint x="660" y="230" />
            </Array>
          </mxGeometry>
        </mxCell>
        <mxCell id="UnlSmL4kvAHs_l4UPPk3-19" value="Phiếu giao nguyên liệu&lt;br&gt;và kiểm tra nguyên liệu" style="edgeLabel;html=1;align=center;verticalAlign=middle;resizable=0;points=[];fontSize=11;fontFamily=Helvetica;fontColor=default;" vertex="1" connectable="0" parent="UnlSmL4kvAHs_l4UPPk3-18">
          <mxGeometry x="-0.5857" y="-1" relative="1" as="geometry">
            <mxPoint x="25" y="-1" as="offset" />
          </mxGeometry>
        </mxCell>
        <mxCell id="UnlSmL4kvAHs_l4UPPk3-24" style="edgeStyle=orthogonalEdgeStyle;rounded=0;orthogonalLoop=1;jettySize=auto;html=1;exitX=0.75;exitY=0;exitDx=0;exitDy=0;entryX=1;entryY=0.5;entryDx=0;entryDy=0;fontFamily=Helvetica;fontSize=11;fontColor=default;" edge="1" parent="1" source="UnlSmL4kvAHs_l4UPPk3-7" target="UnlSmL4kvAHs_l4UPPk3-4">
          <mxGeometry relative="1" as="geometry">
            <Array as="points">
              <mxPoint x="400" y="200" />
              <mxPoint x="400" y="80" />
              <mxPoint x="730" y="80" />
              <mxPoint x="730" y="775" />
            </Array>
          </mxGeometry>
        </mxCell>
        <mxCell id="UnlSmL4kvAHs_l4UPPk3-25" value="Hóa đơn mua hàng" style="edgeLabel;html=1;align=center;verticalAlign=middle;resizable=0;points=[];fontSize=11;fontFamily=Helvetica;fontColor=default;" vertex="1" connectable="0" parent="UnlSmL4kvAHs_l4UPPk3-24">
          <mxGeometry x="-0.6208" relative="1" as="geometry">
            <mxPoint x="1" as="offset" />
          </mxGeometry>
        </mxCell>
        <mxCell id="UnlSmL4kvAHs_l4UPPk3-7" value="Nhà cung cấp" style="html=1;dashed=0;whiteSpace=wrap;" vertex="1" parent="1">
          <mxGeometry x="325" y="230" width="100" height="50" as="geometry" />
        </mxCell>
        <mxCell id="UnlSmL4kvAHs_l4UPPk3-30" style="edgeStyle=orthogonalEdgeStyle;rounded=0;orthogonalLoop=1;jettySize=auto;html=1;exitX=0.5;exitY=1;exitDx=0;exitDy=0;entryX=1;entryY=0.5;entryDx=0;entryDy=0;fontFamily=Helvetica;fontSize=11;fontColor=default;" edge="1" parent="1" source="UnlSmL4kvAHs_l4UPPk3-28" target="UnlSmL4kvAHs_l4UPPk3-2">
          <mxGeometry relative="1" as="geometry" />
        </mxCell>
        <mxCell id="UnlSmL4kvAHs_l4UPPk3-28" value="Phiếu nhập kho" style="html=1;dashed=0;whiteSpace=wrap;shape=partialRectangle;right=0;left=0;labelBackgroundColor=default;align=center;verticalAlign=middle;fontFamily=Helvetica;fontSize=11;fontColor=default;fillColor=none;gradientColor=none;" vertex="1" parent="1">
          <mxGeometry x="425" y="330" width="100" height="30" as="geometry" />
        </mxCell>
      </root>
    </mxGraphModel>
  </diagram>
</mxfile>
